# xmcd
#
# Track frame offsets: 
#        150
#        18965
#        33192
#        59702
#        83630
#        99814
#        118967
#
# Disc length: 1866 seconds
#
# Revision: 0
# Processed by: cddbd v1.5.2PL0 Copyright (c) Steve Scherf et al.
# Submitted via: ExactAudioCopy v1.0b3
#
DISCID=4e074807
DTITLE=Street Feet - Street Feet
DYEAR=1977
DGENRE=Funk
TTITLE0=Satisfied Sity
TTITLE1=Help Yourself
TTITLE2=The Hassle
TTITLE3=Livin' It Up
TTITLE4=Warkoid Walk
TTITLE5=Holdin' On
TTITLE6=The Search Goes On
EXTD=
EXTT0=
EXTT1=
EXTT2=
EXTT3=
EXTT4=
EXTT5=
EXTT6=
PLAYORDER=
